PathFileType	4	(X/Y/Z)	D:\TRACE\spot_10-12-23\spot_arm_body_motion_1_7-platform.trc
DataRate	CameraRate	NumFrames	NumMarkers	Units	OrigDataRate	OrigDataStartFrame	OrigNumFrames
100.00	100.00	      60	5	mm	100.00	5251	      7000
Frame#	Time	Left_Front			Right_Front			Left_Aft			Right_Aft			Post			
		X1	Y1	Z1	X2	Y2	Z2	X3	Y3	Z3	X4	Y4	Z4	X5	Y5	Z5	

5251	52.500	-830.98138	-10.84291	-656.92004	736.28058	-12.73389	-632.49890	-762.42365	27.27722	480.71188	644.54163	28.16537	583.31451	-42.73941	706.22943	-991.68237	
5252	52.510	-831.28589	-10.93906	-656.95160	735.99188	-12.84550	-632.48755	-762.79260	27.35733	480.69153	644.12933	28.19593	583.22754	-43.22974	705.71149	-991.22089	
5253	52.520	-831.58917	-11.07995	-656.97144	735.58557	-13.11240	-632.52234	-763.16589	27.42385	480.61636	643.85284	28.36224	583.15643	-43.34604	705.84857	-991.62830	
5254	52.530	-831.76678	-11.11191	-657.09430	735.40106	-13.19928	-632.62109	-763.37946	27.50198	480.57950	643.70038	28.45337	583.08185	-43.59561	705.83093	-991.71619	
5255	52.540	-832.06885	-10.98779	-657.17877	735.24408	-13.10096	-632.73627	-763.69299	27.79219	480.62598	643.62183	28.47410	583.04828	-43.90714	705.57501	-991.88660	
5256	52.550	-832.37408	-11.12555	-657.22217	735.07867	-13.42221	-632.73218	-763.76624	27.90067	480.46323	643.31647	28.71412	582.94067	-43.91652	705.15491	-991.87878	
5257	52.560	-832.66003	-11.39224	-657.06702	734.86426	-13.85822	-632.74493	-763.88947	28.00582	480.44620	643.05597	28.82687	582.85327	-44.24266	704.90100	-992.28070	
5258	52.570	-832.88647	-11.53671	-657.21631	734.63263	-13.93261	-632.81000	-763.97498	28.03637	480.41092	642.87354	28.83355	582.76215	-44.52580	704.60242	-992.81024	
5259	52.580	-833.00787	-11.38992	-657.32550	734.46075	-13.92254	-632.87000	-764.11609	28.06028	480.42282	642.69269	28.86150	582.74432	-14.08402	676.03571	-1021.64758	
5260	52.590	-832.99530	-11.39632	-657.26379	734.42188	-13.95632	-632.88867	-764.14624	28.10745	480.40952	642.66608	28.88618	582.71631	-44.51997	704.47620	-993.44135	
5261	52.600	-832.99481	-11.44404	-657.24982	734.46753	-14.00600	-632.85394	-764.15619	28.14357	480.41092	642.62030	28.81919	582.42773	-44.56678	704.50165	-993.80615	
5262	52.610	-833.09039	-11.63514	-657.39240	734.48987	-14.01264	-632.83569	-764.17902	28.17807	480.43140	642.64746	28.90143	582.45007	-44.71835	704.42816	-994.31250	
5263	52.620	-833.23090	-11.77362	-657.44891	734.38483	-14.01114	-632.86633	-764.18640	28.18197	480.42114	642.62366	29.00570	582.66193	-44.72402	704.25684	-994.54962	
5264	52.630	-833.24530	-11.81142	-657.45807	734.34937	-14.14505	-632.93500	-764.16626	28.11307	480.38251	642.59839	28.92813	582.66718	-44.65324	704.15845	-994.66656	
5265	52.640	-833.17920	-11.69958	-657.36017	734.43994	-14.31724	-632.94495	-764.17755	28.13160	480.38358	642.59021	29.00940	582.67084	-44.96877	704.16351	-994.79816	
5266	52.650	-833.08533	-11.64622	-657.35126	734.49695	-14.25553	-632.94080	-764.15839	28.20817	480.40182	642.68408	28.99951	582.48645	-44.77291	704.13599	-994.76154	
5267	52.660	-833.20044	-11.82245	-657.51611	734.48901	-14.12319	-632.88416	-764.17487	28.31104	480.40906	642.67755	29.06866	582.44104	-44.62111	703.96100	-994.68726	
5268	52.670	-833.26978	-11.98987	-657.52765	734.43542	-14.21469	-632.90698	-764.18011	28.28425	480.40710	642.57709	29.10850	582.39429	-44.60932	703.81354	-994.56592	
5269	52.680	-833.24567	-12.02066	-657.55597	734.42450	-14.51876	-633.02039	-764.17883	28.24879	480.38895	642.54706	29.15826	582.62073	-44.59963	703.68109	-994.31464	
5270	52.690	-833.22498	-12.01813	-657.48474	734.40680	-14.63941	-633.09833	-764.16693	28.24737	480.38583	642.59204	29.20641	582.59802	-44.65798	703.57648	-994.02216	
5271	52.700	-833.16754	-12.08526	-657.44769	734.42834	-14.59598	-633.08453	-764.10864	28.32309	480.38837	642.64423	29.24679	582.42316	-44.57156	703.59229	-993.78387	
5272	52.710	-833.13629	-12.10500	-657.53302	734.38361	-14.28096	-633.13678	-764.07166	28.41630	480.39725	642.68811	29.47136	582.55475	-101.43932	671.58606	-1017.09247	
5273	52.720	-832.95575	-12.02243	-657.56866	734.68744	-14.60610	-633.01666	-763.95410	28.44351	480.36517	642.84534	29.33624	582.32800	-44.40949	703.56030	-993.45093	
5274	52.730	-832.54480	-12.18915	-657.42969	734.93964	-14.76260	-633.03778	-763.79535	28.44425	480.34470	643.13715	29.30026	582.32422	-44.09412	703.43561	-993.44482	
5275	52.740	-831.96375	-12.47291	-657.31860	735.22546	-14.82726	-633.06830	-763.73291	28.27734	480.43460	643.49072	29.25583	582.34631	-43.63900	703.29755	-993.43591	
5276	52.750	-831.50586	-12.68357	-657.28510	735.56317	-14.81990	-632.97839	-763.18195	28.39730	480.38528	643.79968	29.39727	582.54742	-43.29913	703.28760	-993.49048	
5277	52.760	-831.11737	-12.67461	-657.32312	735.91199	-14.78199	-632.97424	-762.78955	28.50693	480.38724	644.17963	29.55998	582.54041	-43.14547	703.32281	-993.79474	
5278	52.770	-831.00403	-12.59699	-657.42175	736.20947	-14.78333	-632.98248	-762.52472	28.60640	480.36777	644.45313	29.60450	582.51715	-43.03873	703.33136	-994.12006	
5279	52.780	-830.89740	-12.63000	-657.38397	736.45209	-14.83976	-633.01007	-762.32068	28.58812	480.32825	644.51917	29.51652	582.49908	-42.77171	703.18451	-994.59839	
5280	52.790	-830.74066	-12.73184	-657.36957	736.71393	-14.88215	-632.99384	-762.06689	28.56018	480.34116	644.64325	29.48970	582.55579	-42.40392	703.03619	-994.98962	
5281	52.800	-830.47632	-12.76791	-657.31689	737.04083	-14.88157	-633.03003	-761.58588	28.53268	480.22308	644.95392	29.55091	582.60901	-42.12997	703.00818	-995.14453	
5282	52.810	-830.06836	-12.53036	-657.44165	737.41516	-14.72398	-633.06305	-761.42700	28.58843	480.25339	645.44751	29.79828	582.61292	-41.74082	703.13428	-995.33624	
5283	52.820	-829.82025	-12.43741	-657.63531	737.65814	-14.87842	-632.99969	-761.10266	28.66951	480.20029	645.97107	29.89130	582.53766	-41.40123	703.16095	-995.46283	
5284	52.830	-829.46820	-12.34486	-657.78625	738.16864	-14.90142	-632.89801	-760.64154	28.75335	480.17502	646.47430	29.86943	582.48438	-40.97685	703.07062	-995.48206	
5285	52.840	-828.94000	-12.74833	-657.56976	738.63031	-15.04701	-632.78418	-760.20862	28.71770	480.19208	646.86279	29.77958	582.56976	-40.48912	702.94537	-995.36700	
5286	52.850	-828.30682	-13.04697	-657.34296	738.91296	-15.14051	-632.82367	-759.78204	28.67266	480.15250	647.14142	29.59846	582.45587	-40.00640	702.85565	-995.17358	
5287	52.860	-827.82678	-12.80754	-657.54901	739.24921	-15.07696	-632.87372	-759.34857	28.61448	480.08572	647.48553	29.54481	582.47754	-39.59025	702.86731	-994.98236	
5288	52.870	-827.43750	-12.50722	-657.51642	739.81464	-14.82234	-632.93671	-759.00708	28.56057	480.07108	647.82373	29.47852	582.48224	-39.27411	702.99377	-994.84723	
5289	52.880	-827.06085	-12.43593	-657.56696	740.34467	-14.79251	-632.94214	-758.54700	28.59245	480.14865	648.31079	29.55815	582.50885	-38.94093	703.08746	-994.66638	
5290	52.890	-826.58923	-12.45134	-657.56006	740.71741	-14.80949	-632.92944	-758.09155	28.54792	480.24350	648.81476	29.50315	582.54022	-38.37436	703.15839	-994.22028	
5291	52.900	-825.96735	-12.58731	-657.74738	741.15833	-14.74813	-632.89825	-757.53900	28.40824	480.35376	649.27362	29.42853	582.61353	-37.72382	703.28607	-993.70514	
5292	52.910	-825.85120	-12.28765	-657.58759	741.68567	-14.60385	-632.86780	-757.05115	28.33194	480.38062	649.74054	29.39494	582.61078	-37.36098	703.41693	-993.48743	
5293	52.920	-825.29614	-12.14755	-657.53241	742.23053	-14.48116	-632.82605	-756.53650	28.28096	480.43542	650.29932	29.37556	582.66949	-37.02678	703.54535	-993.43750	
5294	52.930	-824.56116	-12.13978	-657.34210	742.82654	-14.37615	-632.81104	-756.05939	28.35262	480.52979	651.20813	29.46258	582.75934	-36.47102	703.67609	-993.38123	
5295	52.940	-824.00000	-12.10768	-657.33453	743.35089	-14.23288	-632.76849	-755.54102	28.28313	480.58319	651.54303	29.30838	582.59894	-35.98645	703.76050	-993.41638	
5296	52.950	-823.51050	-12.14472	-657.39880	743.79156	-14.22598	-632.78265	-754.99451	28.18009	480.65219	651.91602	29.23550	582.64014	-35.39756	703.77295	-993.41602	
5297	52.960	-822.99744	-12.03483	-657.45715	744.24390	-14.21202	-632.74713	-754.53082	28.11340	480.61246	652.31879	29.19986	582.67419	-34.81665	703.85162	-993.40948	
5298	52.970	-822.54974	-11.94063	-657.43994	744.81635	-14.23608	-632.75531	-753.98767	28.04501	480.52609	652.98602	29.15200	582.66302	-34.14542	704.07666	-993.42957	
5299	52.980	-822.12708	-11.68091	-657.42944	745.50995	-14.02438	-632.70929	-753.36469	28.08366	480.52036	653.66302	29.09771	582.71069	-33.68239	704.46295	-993.61938	
5300	52.990	-821.35315	-11.53505	-657.30591	746.14960	-13.79464	-632.69452	-752.69037	28.04101	480.48087	654.30426	28.97911	582.75751	-33.24430	704.69983	-993.75891	
5301	53.000	-820.58856	-11.52387	-657.24469	746.73645	-13.69944	-632.62073	-752.13879	27.95947	480.49152	654.78082	28.93148	582.80444	-32.58382	704.61707	-993.64166	
5302	53.010	-820.00092	-11.63546	-657.26813	747.34393	-13.66585	-632.69830	-751.56177	27.82561	480.54199	655.26318	28.85725	582.93872	-31.91885	704.71460	-993.46985	
5303	53.020	-819.53253	-11.53328	-657.26288	747.80109	-13.66711	-632.70557	-750.98804	27.67638	480.61246	655.92346	28.64103	582.82941	-31.26514	704.91589	-993.26947	
5304	53.030	-818.98376	-11.38377	-657.21637	748.41748	-13.48152	-632.66046	-750.35645	27.61596	480.68552	656.44196	28.61349	583.02063	-29.49783	705.25610	-993.01068	
5305	53.040	-818.37646	-11.08673	-657.23865	749.02820	-13.33975	-632.60413	-749.67535	27.61807	480.68643	657.25928	28.57734	582.99475	-28.43463	705.46429	-992.80060	
5306	53.050	-817.47418	-10.95201	-657.19373	749.77313	-13.28710	-632.50854	-749.00854	27.53971	480.79376	658.06830	28.47699	583.01367	-28.08626	705.56036	-992.56616	
5307	53.060	-816.83551	-10.96400	-657.11981	750.50696	-13.12106	-632.44775	-748.40991	27.43627	480.88477	658.51288	28.37063	583.07397	-27.74770	705.67029	-992.17639	
5308	53.070	-816.27484	-10.92978	-657.02930	751.17169	-12.89775	-632.43945	-747.67645	27.25406	480.97162	659.28003	28.26109	583.17084	-27.04459	705.87720	-991.67480	
5309	53.080	-815.66016	-10.74273	-656.95367	751.84277	-12.70230	-632.46185	-746.97137	27.20969	480.94342	660.05634	28.14957	583.24194	-26.56735	706.13721	-991.50378	
5310	53.090	-814.83276	-10.48631	-657.03601	752.31464	-12.90382	-632.40204	-746.33337	27.18764	480.93512	660.84583	28.03162	583.34784	-25.94638	706.43738	-991.28717	
